<svg xmlns="http://www.w3.org/2000/svg" viewBox="0 0 218.59 108.83"><defs><style>.cls-1{fill-opacity:0.42;}.cls-2{fill:none;stroke:#000;stroke-linecap:round;stroke-linejoin:round;stroke-width:3px;}</style></defs><title>Recurso 1</title><g id="Capa_2" data-name="Capa 2"><g id="Capa_1-2" data-name="Capa 1"><g id="surface1"><path d="M0,87.11c69.16-13.2,127.95-14.52,218.13-7.84C140.47,76.66,72.36,78.07,0,87.11"/><path d="M47.84,37.93c-2.08,0-3,.55-3,1.59v4c0,1,.89,1.58,3,1.58h1.38c2.08,0,3-.54,3-1.58v-4c0-1-.9-1.59-3-1.59Zm146.63-2.54c-2.62,0-6.54.8-7.08,6.55l-.5,5h-2c-1.19,0-1.24,1.68-1.24,2.23,0,.79.15,1.32.84,1.32h2l-2.23,21.34c0,.74.5,1.09,1.89,1.09h.19c1.29,0,2-.35,2.08-1.09l2.23-21.34h3.27c1.88,0,2.23-2.43,2.23-2.62,0-.69-.2-.93-.8-.93H191l.45-4.51c.3-3,1.45-3.47,3-3.47a6.86,6.86,0,0,1,2.22.36c.6,0,1.29-1.85,1.29-2.39C198,35.43,195.31,35.38,194.47,35.38Zm-16.34.21c-1.29,0-2,.3-2.08,1.09l-.29,2.92c0,.89.79,1.09,2.08,1.09h.59c1.39,0,1.89-.45,1.89-1.09l.3-2.92c0-.79-.5-1.09-1.89-1.09ZM3.48,38c-2.13,0-3.07.49-3.07,1.29A2.21,2.21,0,0,0,.5,40L8.33,71.78c.15.7,1.14,1,2.73,1h3.55c1.39,0,2.53-.34,2.73-1l5-20.5,4.85,20.5c.15.7,1.34,1,2.73,1h3.61c1.38,0,2.53-.34,2.73-1L44.38,40a5.15,5.15,0,0,0,.1-.75c0-.79-1-1.29-3.08-1.29h-.55c-1.93,0-3.06.5-3.3,1.54L33.68,55.44c-.45,1.88-1,4.75-1.68,7.48-.59-2.77-1.25-5.59-1.7-7.48L26.4,39c-.2-.79-1.13-1-2.71-1H21.8c-1.59,0-2.53.24-2.73,1L15,55.44a70.5,70.5,0,0,0-1.68,7.13c-.6-2.77-1.14-5.44-1.54-7.12L8.08,39.5C7.83,38.46,6.7,38,4.76,38Zm152.73.1c-1.39,0-2,.4-2.08,1.09l-3.36,32.18c0,1,.24,1.47,1.33,1.47h17.29c1.23,0,1.23-1.53,1.23-2.67,0-.74-.25-1.09-.84-1.09H155.37l3.11-29.89c0-.69-.44-1.09-1.87-1.09ZM70.13,46.43a9.62,9.62,0,0,0-7.37,3.76c-.29-1.24-.41-3.21-2-3.21-1.24,0-5.55.39-5.55,1.58a39.6,39.6,0,0,1,.61,7V71.24c0,1,.89,1.57,3,1.57h1.39c2.08,0,3-.54,3-1.57V55.34c.59-1.14,1.93-2.86,4-2.86s3,1.13,3,3.07V71.24c0,1,.9,1.57,3,1.57h1.39c2.08,0,3-.54,3-1.57V54.45C77.4,49,75.08,46.43,70.13,46.43Zm140.15.19c-9.7,0-13.61,7.39-13.61,16.25s6.29,10.23,11.2,10.23c2.13,0,7.68-.83,8.13-3.16a14.71,14.71,0,0,0,.24-2.23c0-.59-.14-.61-.34-.61-.7,0-3.23,2.43-7.69,2.43S201,67.91,201,62.42v-.49a22.91,22.91,0,0,0,4.26.34c6.73,0,13.36-2.17,13.36-9.05C218.59,50.69,216.52,46.62,210.28,46.62Zm-162.43.1c-2.08,0-3,.55-3,1.6V71.24c0,1,.89,1.57,3,1.57h1.38c2.08,0,3-.54,3-1.57V48.32c0-1-.9-1.6-3-1.6Zm129.29.11c-1.29,0-2,.3-2.08,1.09-.1,0-2,18.47-2,20.5,0,3.27,1.64,4.69,4.41,4.69.89,0,2.72-.38,3-1.62a11.24,11.24,0,0,0,.21-1.84c0-.3-.15-.34-.3-.34a11,11,0,0,1-1.34.25c-.79,0-1.72,0-1.72-2,0-1.48,2-19.6,2-19.6,0-.74-.5-1.09-1.89-1.09Zm32.7,3.36c2.82,0,4.45,1.59,4.45,3.42,0,5.1-8.12,5.1-9.55,5.1h-3.51c.64-4.6,2.87-8.52,8.61-8.52"/><path d="M.31,87c69.16-13.2,128-14.51,218.13-7.83C140.78,76.5,72.68,77.92.31,87"/><path d="M109.14,81.86c-.3.87-.59,1.67-.86,2.41s-.54,1.44-.8,2.1-.52,1.3-.77,1.9-.52,1.2-.79,1.8h-1.08c-.27-.6-.53-1.19-.79-1.8s-.52-1.23-.78-1.9-.54-1.36-.81-2.1-.56-1.54-.86-2.41h1.27q.64,1.87,1.26,3.6c.41,1.15.83,2.23,1.26,3.24.43-1,.86-2.08,1.27-3.24s.82-2.36,1.24-3.6Zm1,0h1.15v8.21h-1.15Zm9.78,4.1a4.73,4.73,0,0,1-.33,1.85,3.4,3.4,0,0,1-.93,1.3,4,4,0,0,1-1.45.77,6.29,6.29,0,0,1-1.85.26c-.33,0-.7,0-1.1,0a6.53,6.53,0,0,1-1.08-.16V82a6.53,6.53,0,0,1,1.08-.16c.4,0,.77,0,1.1,0a6.42,6.42,0,0,1,1.85.25,4.07,4.07,0,0,1,1.45.77,3.46,3.46,0,0,1,.93,1.3A4.73,4.73,0,0,1,119.92,86Zm-4.46,3.17a3.19,3.19,0,1,0,0-6.35h-.75l-.37,0V89.1l.37,0Zm11.27.94c-.13-.36-.26-.71-.38-1.05L126,88h-3.72l-.74,2.1h-1.2c.32-.87.61-1.67.89-2.41s.55-1.44.81-2.1.53-1.3.79-1.9.53-1.2.81-1.79h1.05q.43.89.82,1.79c.26.61.52,1.24.79,1.9s.53,1.36.81,2.1.57,1.54.89,2.41Zm-1.08-3q-.37-1-.75-2t-.78-1.85q-.42.89-.79,1.85t-.74,2ZM138,86a4.73,4.73,0,0,1-.34,1.85,3.4,3.4,0,0,1-.93,1.3,4,4,0,0,1-1.45.77,6.27,6.27,0,0,1-1.85.26c-.33,0-.7,0-1.1,0a6.53,6.53,0,0,1-1.08-.16V82a6.53,6.53,0,0,1,1.08-.16c.4,0,.77,0,1.1,0a6.41,6.41,0,0,1,1.85.25,4,4,0,0,1,1.45.77,3.46,3.46,0,0,1,.93,1.3A4.73,4.73,0,0,1,138,86Zm-4.46,3.17a3.19,3.19,0,1,0,0-6.35h-.75l-.37,0V89.1l.37,0Zm6,.94V81.86h5v1H140.7v2.44h3.44v1H140.7v2.84h4.16v1Zm13.94-4h1.15v3.84l-.41.11-.62.12c-.23,0-.49.07-.76.1s-.56,0-.84,0a4.17,4.17,0,0,1-1.57-.29,3.26,3.26,0,0,1-1.22-.83,3.74,3.74,0,0,1-.79-1.34,5.52,5.52,0,0,1-.28-1.82,5,5,0,0,1,.32-1.83,4,4,0,0,1,.84-1.34,3.57,3.57,0,0,1,1.25-.83,4.15,4.15,0,0,1,1.53-.29,6.18,6.18,0,0,1,1,.07,5.05,5.05,0,0,1,.74.17,3.06,3.06,0,0,1,.5.19l.27.14-.37,1a3.12,3.12,0,0,0-.91-.37,4.66,4.66,0,0,0-1.16-.15,2.78,2.78,0,0,0-1.14.23,2.37,2.37,0,0,0-.87.65,3,3,0,0,0-.56,1,4.29,4.29,0,0,0-.2,1.37,4.9,4.9,0,0,0,.17,1.34,2.9,2.9,0,0,0,.52,1,2.29,2.29,0,0,0,.87.67,2.83,2.83,0,0,0,1.21.24,5.8,5.8,0,0,0,.85-.05,4.57,4.57,0,0,0,.5-.1Zm8.28,4c-.14-.36-.27-.71-.38-1.05L161,88H157.3l-.75,2.1h-1.2c.32-.87.61-1.67.89-2.41s.55-1.44.81-2.1.53-1.3.79-1.9.53-1.2.82-1.79h1.05q.43.89.82,1.79c.26.61.52,1.24.79,1.9s.54,1.36.81,2.1.57,1.54.89,2.41Zm-1.08-3q-.38-1-.75-2c-.25-.64-.51-1.26-.77-1.85q-.42.89-.79,1.85t-.74,2Zm8.91,3-.6-1c-.22-.36-.47-.74-.73-1.13l-.81-1.19-.84-1.17-.81-1.06c-.26-.33-.5-.62-.72-.87v6.41H164V81.86h.91q.56.59,1.19,1.38c.42.53.84,1.07,1.25,1.62s.8,1.1,1.17,1.64.68,1,.93,1.43V81.86h1.13v8.21Zm8.34,0c-.13-.36-.26-.71-.38-1.05l-.36-1h-3.72l-.75,2.1h-1.2c.32-.87.61-1.67.89-2.41s.55-1.44.81-2.1.53-1.3.79-1.9.53-1.2.82-1.79h1.05q.43.89.82,1.79c.26.61.52,1.24.79,1.9s.54,1.36.81,2.1.57,1.54.89,2.41Zm-1.07-3q-.38-1-.75-2c-.25-.64-.51-1.26-.77-1.85q-.42.89-.79,1.85t-.74,2Zm10-1.06a4.73,4.73,0,0,1-.33,1.85,3.4,3.4,0,0,1-.93,1.3,4,4,0,0,1-1.45.77,6.29,6.29,0,0,1-1.85.26c-.33,0-.7,0-1.1,0a6.53,6.53,0,0,1-1.08-.16V82a6.53,6.53,0,0,1,1.08-.16c.4,0,.77,0,1.1,0a6.42,6.42,0,0,1,1.85.25,4.07,4.07,0,0,1,1.45.77,3.46,3.46,0,0,1,.93,1.3A4.73,4.73,0,0,1,186.89,86Zm-4.46,3.17a3.19,3.19,0,1,0,0-6.35h-.75l-.37,0V89.1l.37,0Zm5.7-3.17a5.05,5.05,0,0,1,.31-1.86,3.87,3.87,0,0,1,.86-1.35,3.45,3.45,0,0,1,1.25-.81,4.28,4.28,0,0,1,1.52-.27,4.19,4.19,0,0,1,1.5.27,3.51,3.51,0,0,1,1.24.81,4,4,0,0,1,.84,1.35,5.69,5.69,0,0,1,0,3.72,4,4,0,0,1-.84,1.34,3.51,3.51,0,0,1-1.24.81,4.11,4.11,0,0,1-1.5.27,4.19,4.19,0,0,1-1.52-.27,3.45,3.45,0,0,1-1.25-.81,3.89,3.89,0,0,1-.86-1.34A5.08,5.08,0,0,1,188.13,86Zm1.2,0a4.45,4.45,0,0,0,.19,1.35,3.08,3.08,0,0,0,.54,1,2.39,2.39,0,0,0,.86.66,2.88,2.88,0,0,0,2.26,0,2.4,2.4,0,0,0,.85-.66,3.15,3.15,0,0,0,.54-1,5,5,0,0,0,0-2.71,3.15,3.15,0,0,0-.54-1,2.36,2.36,0,0,0-.85-.66,2.88,2.88,0,0,0-2.26,0,2.35,2.35,0,0,0-.86.66,3.08,3.08,0,0,0-.54,1A4.47,4.47,0,0,0,189.33,86Zm12.2.68.48.62c.19.26.39.54.6.86s.41.64.61,1a9.25,9.25,0,0,1,.52,1h-1.25c-.16-.3-.33-.61-.52-.91s-.37-.6-.56-.88-.38-.54-.56-.79-.35-.46-.5-.64h-1.67v3.21h-1.15V82a6.51,6.51,0,0,1,1.09-.16c.4,0,.77,0,1.1,0a4.48,4.48,0,0,1,2.63.65,2.23,2.23,0,0,1,.9,1.94,2.29,2.29,0,0,1-.43,1.4A2.56,2.56,0,0,1,201.53,86.64Zm-1.74-3.85q-.74,0-1.12,0v3.09h.82a8.08,8.08,0,0,0,1.07-.06,2.46,2.46,0,0,0,.8-.22,1.21,1.21,0,0,0,.5-.47,1.84,1.84,0,0,0,0-1.57,1.3,1.3,0,0,0-.48-.48,2.18,2.18,0,0,0-.71-.25A5.1,5.1,0,0,0,199.79,82.79Zm5,7.29V81.86h5v1H206v2.44h3.43v1H206v2.84h4.16v1Zm8.51-.82c1.2,0,1.8-.41,1.8-1.23a1.21,1.21,0,0,0-.16-.64,1.47,1.47,0,0,0-.43-.46,2.93,2.93,0,0,0-.62-.34l-.74-.28a8.07,8.07,0,0,1-.85-.35,3.15,3.15,0,0,1-.7-.46,2,2,0,0,1-.47-.63A2.11,2.11,0,0,1,211,84a2.06,2.06,0,0,1,.73-1.68,3.1,3.1,0,0,1,2-.61,5.4,5.4,0,0,1,1.36.16,3.11,3.11,0,0,1,.89.35l-.36.94a2.93,2.93,0,0,0-.74-.3,4.07,4.07,0,0,0-1.14-.15,2.55,2.55,0,0,0-.62.07,1.55,1.55,0,0,0-.5.21,1.12,1.12,0,0,0-.34.36,1,1,0,0,0-.12.52,1.11,1.11,0,0,0,.13.56,1.25,1.25,0,0,0,.37.39,3,3,0,0,0,.55.31c.21.1.44.19.69.29s.68.28,1,.42a3.19,3.19,0,0,1,.77.51,2,2,0,0,1,.5.7,2.52,2.52,0,0,1,.18,1,1.93,1.93,0,0,1-.79,1.66,3.7,3.7,0,0,1-2.22.58,5.58,5.58,0,0,1-1.62-.22,3.92,3.92,0,0,1-.55-.19l-.36-.17.35-.95a4.74,4.74,0,0,0,.83.34,4.27,4.27,0,0,0,1.36.19"/><path class="cls-1" d="M117.72,23.5c-6.11,3.42-8.77,2.21-10.78.89-1.2-.79-2.17-1.62-3.5-1.5a1,1,0,0,0-.47.18c-.73.54-1.14,2.12-1.13,3.52a5.11,5.11,0,0,0,.21,1.5c.57,1.65,2,.35,2.84,1.55A10.4,10.4,0,0,1,106,31.86a10.79,10.79,0,0,1,.67,3.46,5.59,5.59,0,0,1-.55,2.77,1.59,1.59,0,0,1-1.08.78,3.1,3.1,0,0,1-1.2,0,7.94,7.94,0,0,1-2.49-1,7.68,7.68,0,0,1-1.69-1.47,20.22,20.22,0,0,1-4-6.67c-.05-.18-.09-.36-.12-.51C94,20.36,97.76,10.51,97.76,10.51l.45.12c1.44.42,6,1.74,9.67,2.69,1.45.39,2.75.7,3.61.88C117,15.34,119,18.67,119,21.08A2.7,2.7,0,0,1,117.72,23.5ZM118.63,75a15,15,0,0,1-1.45-8.42c.1-6.84,4.64-14.49,8.14-19-4.48,7.89-5.2,17.35-2.76,27.55.28,1.14.6,2.25.95,3.35-.24.28-.85,0-1.37-.34A5.13,5.13,0,0,1,118.63,75Zm24.79-49.32c0,.1-.06.19-.09.29-.23.73-.33,1.36-3.39.5l-.65-.19A58.74,58.74,0,0,1,130,21.85s1.64.11,3.72.38a40.22,40.22,0,0,1,6.49,1.21c2.77.85,3.3,1.4,3.29,2C143.45,25.49,143.43,25.58,143.41,25.67Zm36.51,13.74s-2.41-5.35-4.91-6.71c-9.17-5-15.46-5.9-18.5-6a10.85,10.85,0,0,0-2.09.1l-.14-.27a59.83,59.83,0,0,0-4.13-7.36,22.35,22.35,0,0,0-6.92-4.92l-.9-.38c-4.86-1.79-12.44-3.55-20.1-5s-15.4-2.58-20.55-3.14l-1-.09c-5.1-.48-11.33-.33-23.45,4.64-2.64,1.08-4.87,2.08-6.82,3.08a41.15,41.15,0,0,0-5.12,3c-6.13,4.29-8,8.7-8.27,12.11a10.46,10.46,0,0,0,.23,3c.46,2,2-3.93,9.52-5.89.86-.22,1.63-.41,2.35-.57,5-1.15,6.61-1,6.61-1s.11.07.09.15-.07.13-.24.19l-.73.31c-4,1.84-13.33,7.55-16.3,12a6.81,6.81,0,0,0-.81,1.82,17.64,17.64,0,0,0-.57,4.8,27.82,27.82,0,0,0,.89,7c.32,1.18.7,2,1,2.1,1.4.53,1.78-1.74,3.34-4.2A10.51,10.51,0,0,1,67,44.16c6-2.8,7.59-.73,7.59-.73a.51.51,0,0,1,.05.09.25.25,0,0,1,0,0s0,.09-.11.14a16.22,16.22,0,0,0-1.55.82C69.36,46.6,61.64,52,61.68,58.86a7.75,7.75,0,0,0,0,.79,37.31,37.31,0,0,0,1.9,9,26.47,26.47,0,0,0,4,7.33c1.17,1.62,1.36-.21,2.21-3.08.05-.16.11-.34.16-.52A17.29,17.29,0,0,1,74.21,65c.18-.18.37-.36.56-.52a117.33,117.33,0,0,1,9.61-7.64c.27-.19.29,0,.27.07v0A54.17,54.17,0,0,0,78,64.84c-2.55,3.73-4.86,8.31-4.88,12.67a10.84,10.84,0,0,0,.38,3,21.82,21.82,0,0,0,2.42,5.61,22.56,22.56,0,0,0,9.23,8.52c.91-.13,1.18-.41,1.17-1a29.57,29.57,0,0,1-.72-5.07,2,2,0,0,1,0-.34,18,18,0,0,1,.47-3.76A21.51,21.51,0,0,1,88,79.25a15.25,15.25,0,0,1,3.34-4.48c.4-.33.38.06.38.06s0,.07-.05.21-.08.33-.13.58A74.16,74.16,0,0,0,89.58,90.5c0,3.25.46,6.2,1.77,7.93a16.67,16.67,0,0,0,2.13,2.31l.82.7c7.27,5.89,19.38,7.77,19.77,6.79,0-.07,0-.16-.12-.27-4-3.84-8.25-7.07-10.78-18.26a52.48,52.48,0,0,1-1.23-9.43c0-1,0-1.89,0-2.76a52.51,52.51,0,0,1,.65-7.93,1,1,0,0,1,.13-.37c.17-.21.36.68.36.68s3.42,21.94,15.84,33.44c1.29,1.18.29.14,1.77,1.07a31.59,31.59,0,0,0,11,3.75c.72.13,1.45.23,2.15.33l1,.12c5.93.61,10.89,0,10.62-1.18a.43.43,0,0,0-.11-.22c-1.22-1.79-3.37.82-8.08-3.16-3.25-2.75-4.54-4.93-3-5.53l.75.3c3.48,1.22,7.45,5.41,14.27,6.39a20.12,20.12,0,0,0,3,.2,48.63,48.63,0,0,0,7.51-.65c.7-.1,1.38-.23,2-.36,5.65-1.13,10.12-3,10.52-4.57a.89.89,0,0,0,0-.27,1.35,1.35,0,0,0-.8-1l-.45-.22c-2-.84-9.64.71-16.81-1.77a18.88,18.88,0,0,1-4.79-2.44c-6.34-4.49-7.6-8.6-7.86-10a3.54,3.54,0,0,1-.05-.5l.31,0c1.39-.08,7-.42,7.88-1.43a23.22,23.22,0,0,0,3-4.8A26.61,26.61,0,0,0,155,71.25a11.16,11.16,0,0,0,.22-2.18,3.15,3.15,0,0,0-1.28-2.91c-.74-.43-1.57,0-2.55.66l-.43.29A9,9,0,0,1,146.63,69a15,15,0,0,1-2.14,0c-2-.19-3.56-1-5.62-2.86a10.26,10.26,0,0,1-2.76-6.86,7.54,7.54,0,0,1,.9-3.74c2.43-4.3,7-8.91,12.32-10.55a6.59,6.59,0,0,1,.76-.2c3.85-.87,8.27.27,9.32,2.68a9.23,9.23,0,0,1,.8,4.27c-.16,3.25-1.95,5.77-2,7.88a3,3,0,0,0,.19,1.21c.95,2.48,2.59,1,10.08-3.44.75-.44,1.4-.87,2-1.28,4.1-2.89,4.63-5.1,4.63-5.1a20.07,20.07,0,0,0,2-6.57c.59-4.46-2.2-4.1-2.36-4.07l2.34-.41Z"/><path class="cls-1" d="M136.71,10.34s-6.2-4.14-7.51-5.64a4.16,4.16,0,0,1-.66-1.2,23,23,0,0,1-1-3.46V0S119.7.95,118,1.77a2.48,2.48,0,0,0-.31.18C116,3,113.95,6.4,113.95,6.4Z"/><path class="cls-2" d="M128.95,47.62c-8.8,0-12.34,6.7-12.34,14.73s5.7,9.28,10.15,9.28c1.93,0,7-.75,7.36-2.86a13.15,13.15,0,0,0,.22-2c0-.54-.13-.55-.31-.55-.63,0-2.93,2.2-7,2.2s-6.55-1.49-6.55-6.47v-.44a20.76,20.76,0,0,0,3.86.31c6.11,0,12.11-2,12.11-8.21C136.48,51.3,134.6,47.62,128.95,47.62Zm-.4,3.23c2.56,0,4,1.44,4,3.11,0,4.62-7.36,4.62-8.66,4.62h-3.18C121.32,54.41,123.34,50.85,128.55,50.85Z"/><path d="M128.95,47.62c-8.8,0-12.34,6.7-12.34,14.73s5.7,9.28,10.14,9.28c1.93,0,7-.75,7.36-2.86a13.47,13.47,0,0,0,.21-2c0-.54-.13-.55-.31-.55-.63,0-2.93,2.2-7,2.2s-6.55-1.49-6.55-6.47v-.44a20.84,20.84,0,0,0,3.86.31c6.1,0,12.11-2,12.11-8.21C136.48,51.3,134.6,47.62,128.95,47.62Zm-.4,3.23c2.55,0,4,1.44,4,3.11,0,4.62-7.36,4.63-8.66,4.63h-3.18c.59-4.18,2.6-7.73,7.81-7.73"/><path d="M93.27,37.6c-2.08,0-3,.55-3,1.59l0,31.72c0,1,.89,1.57,3,1.57h.59c1.58,0,2.63-.19,2.88-1.28l.5-2.12a7.37,7.37,0,0,0,6.64,3.71c5.34,0,9.25-4.75,9.25-13.36,0-8.07-3.76-13.32-10.44-13.32a8.58,8.58,0,0,0-5,1.54l0-8.45c0-1-.9-1.59-3-1.59Zm7.8,14.3c3.12,0,4.6,2.57,4.6,7.52,0,4.8-1.29,7.38-4,7.38-1.88,0-3.16-1.39-4.05-2.92v-11a6.91,6.91,0,0,1,3.47-.95"/></g></g></g></svg>